<svg width="20" height="20" viewBox="0 0 20 20" fill="white" xmlns="http://www.w3.org/2000/svg">
<path d="M9.93096 5.07385C6.98086 5.07385 4.58008 7.37025 4.58008 10.1921C4.58008 13.0139 6.98086 15.3091 9.93096 15.3091C12.8811 15.3091 15.2806 13.0139 15.2806 10.1921C15.2806 7.37025 12.8811 5.07385 9.93096 5.07385ZM9.93096 13.8508C7.82138 13.8508 6.106 12.2087 6.106 10.1921C6.106 8.17423 7.82138 6.53343 9.93096 6.53343C12.0393 6.53343 13.7559 8.17423 13.7559 10.1921C13.7547 12.2087 12.0393 13.8508 9.93096 13.8508Z"/>
<path d="M15.8639 5.56876C16.2537 5.56876 16.5697 5.26653 16.5697 4.89371C16.5697 4.52089 16.2537 4.21866 15.8639 4.21866C15.4742 4.21866 15.1582 4.52089 15.1582 4.89371C15.1582 5.26653 15.4742 5.56876 15.8639 5.56876Z"/>
<path d="M15.2592 0.691406H4.60191C2.05999 0.691406 0 2.66305 0 5.09445V15.2884C0 17.7198 2.06126 19.6914 4.60191 19.6914H15.2592C17.8011 19.6914 19.8624 17.7198 19.8624 15.2884V5.09567C19.8624 2.66305 17.8011 0.691406 15.2592 0.691406ZM18.3364 15.2884C18.3364 16.9109 16.9555 18.2318 15.2592 18.2318H4.60191C2.9056 18.2318 1.52592 16.9109 1.52592 15.2884V5.09567C1.52592 3.47311 2.9056 2.1522 4.60191 2.1522H15.2592C16.9555 2.1522 18.3364 3.47189 18.3364 5.09567V15.2884Z"/>
</svg>
