<svg width="23" height="19" viewBox="0 0 23 19" fill="none" xmlns="http://www.w3.org/2000/svg">
<path d="M22.5806 4.13239C22.3957 2.44824 21.2141 1.162 19.5486 1.05041C12.3493 0.571739 10.6506 0.571739 3.44979 1.05041C1.78575 1.162 0.604156 2.44677 0.419262 4.13239C-0.139754 9.25972 -0.139754 10.1231 0.419262 15.2504C0.602712 16.936 1.78575 18.2208 3.45124 18.3324C10.6506 18.8111 12.3493 18.8111 19.55 18.3324C21.2141 18.2223 22.3971 16.936 22.582 15.2504C23.1396 10.1231 23.1396 9.26119 22.5806 4.13239ZM16.3216 10.1348L10.093 13.951C9.9312 14.0479 9.70586 14.0508 9.54119 13.9568C9.37796 13.8629 9.24507 13.6984 9.24507 13.5061V5.87821C9.24507 5.68586 9.37796 5.52288 9.54119 5.42744C9.70586 5.33347 9.91242 5.3364 10.0742 5.43331L16.31 9.24944C16.4661 9.34488 16.5614 9.5064 16.5614 9.69287C16.5614 9.87935 16.4776 10.0394 16.3216 10.1348Z"/>
</svg>
